<svg width="1263" height="939" viewBox="0 0 1263 939" fill="none" xmlns="http://www.w3.org/2000/svg">
<g clip-path="url(#clip0_502_63)">
<g filter="url(#filter0_f_502_63)">
<path d="M977.466 -368.623L1070.13 -361.342C1156.5 -354.556 1200.69 -462.638 1134.29 -518.305C1081.09 -562.908 1097.16 -648.534 1162.9 -670.827L1165.89 -671.841C1229.44 -693.39 1248.47 -774.054 1201.24 -821.728L1171.27 -851.984C1110.31 -913.516 1134.69 -1017.61 1216.63 -1045.68L1307.82 -1076.93C1343.98 -1089.31 1383.16 -1089.72 1419.56 -1078.1L1497.43 -1053.24C1598.35 -1021.01 1661.5 -920.906 1647.11 -815.951L1600.57 -476.591C1589.18 -393.521 1529.2 -325.327 1448.26 -303.437L1255.63 -251.343C1149.47 -222.632 1130.04 -80.397 1224.61 -24.2633C1322.28 33.7079 1297.58 181.484 1186.37 204.54L1127.19 216.809C1024.41 238.118 975.943 356.756 1034.41 443.936L1058.69 480.148C1131.02 588.004 1066.59 734.456 938.208 754.008L710.032 788.757C545.76 813.774 415.015 653.168 472.835 497.385L556.565 271.793C582.89 200.867 646.095 150.171 721.044 139.866L856.56 121.235C973.941 105.096 1019.82 -40.1901 933 -120.816L887.352 -163.205C804.883 -239.787 865.269 -377.438 977.466 -368.623Z" fill="url(#paint0_linear_502_63)" fill-opacity="0.2"/>
<path d="M977.466 -368.623L1070.13 -361.342C1156.5 -354.556 1200.69 -462.638 1134.29 -518.305C1081.09 -562.908 1097.16 -648.534 1162.9 -670.827L1165.89 -671.841C1229.44 -693.39 1248.47 -774.054 1201.24 -821.728L1171.27 -851.984C1110.31 -913.516 1134.69 -1017.61 1216.63 -1045.68L1307.82 -1076.93C1343.98 -1089.31 1383.16 -1089.72 1419.56 -1078.1L1497.43 -1053.24C1598.35 -1021.01 1661.5 -920.906 1647.11 -815.951L1600.57 -476.591C1589.18 -393.521 1529.2 -325.327 1448.26 -303.437L1255.63 -251.343C1149.47 -222.632 1130.04 -80.397 1224.61 -24.2633C1322.28 33.7079 1297.58 181.484 1186.37 204.54L1127.19 216.809C1024.41 238.118 975.943 356.756 1034.41 443.936L1058.69 480.148C1131.02 588.004 1066.59 734.456 938.208 754.008L710.032 788.757C545.76 813.774 415.015 653.168 472.835 497.385L556.565 271.793C582.89 200.867 646.095 150.171 721.044 139.866L856.56 121.235C973.941 105.096 1019.82 -40.1901 933 -120.816L887.352 -163.205C804.883 -239.787 865.269 -377.438 977.466 -368.623Z" stroke="black"/>
</g>
<g filter="url(#filter1_f_502_63)">
<path d="M-105.256 -774.455L172.709 -896.71L317.334 -938.073C413.825 -965.668 496.294 -864.086 449.458 -775.325C437.448 -752.563 433.496 -726.407 438.245 -701.113L481.46 -470.962C502.232 -360.336 435.368 -252.085 327.148 -221.135L139.324 -167.418C74.779 -148.959 34.0456 -85.3659 44.267 -19.0162C56.4813 60.2704 135.474 110.868 212.603 88.8091L439.681 23.8661C540.51 -4.9706 627.824 99.2899 581.736 193.492C558.397 241.196 506.695 268.123 454.228 259.901L292.641 234.578C216.32 222.617 139.533 253.099 92.1938 314.147C8.51033 422.066 -153.866 423.927 -240.001 317.955L-277.632 271.658L-375.967 158.71C-443.219 81.4633 -447.629 -32.1831 -386.566 -114.409L-139.928 -446.522C-107.385 -490.343 -109.825 -550.93 -145.787 -591.991C-197.37 -650.891 -176.925 -742.933 -105.256 -774.455Z" fill="url(#paint1_linear_502_63)" fill-opacity="0.2"/>
</g>
<g filter="url(#filter2_f_502_63)">
<path d="M797.943 1383.84L624.827 1453.52L531.537 1478.52C480.673 1492.15 439.483 1436.33 467.502 1391.75C474.963 1379.88 477.865 1365.7 475.668 1351.85L464.402 1280.84C450.836 1195.31 504.047 1113.35 587.691 1090.94L671.414 1068.5C704.739 1059.58 726.418 1027.49 722.267 993.24C717.197 951.399 676.258 923.738 635.547 934.647L491.109 973.349C435.705 988.194 390.16 928.413 419.182 878.938C432.205 856.738 457.237 844.472 482.761 847.784L586.653 861.265C629.993 866.888 673.324 850.816 702.513 818.288C756.012 758.67 849.732 759.671 901.945 820.419L916.459 837.305C983.403 909.68 985.353 1020.78 920.989 1095.46L816.911 1216.21C797.954 1238.21 798.58 1270.94 818.365 1292.2C845.593 1321.45 835.015 1368.92 797.943 1383.84Z" fill="url(#paint2_linear_502_63)" fill-opacity="0.2"/>
</g>
</g>
<defs>
<filter id="filter0_f_502_63" x="238.418" y="-1307.03" width="1631.22" height="2318.87" filterUnits="userSpaceOnUse" color-interpolation-filters="sRGB">
<feFlood flood-opacity="0" result="BackgroundImageFix"/>
<feBlend mode="normal" in="SourceGraphic" in2="BackgroundImageFix" result="shape"/>
<feGaussianBlur stdDeviation="110" result="effect1_foregroundBlur_502_63"/>
</filter>
<filter id="filter1_f_502_63" x="-649.549" y="-1162.68" width="1463.93" height="1778.96" filterUnits="userSpaceOnUse" color-interpolation-filters="sRGB">
<feFlood flood-opacity="0" result="BackgroundImageFix"/>
<feBlend mode="normal" in="SourceGraphic" in2="BackgroundImageFix" result="shape"/>
<feGaussianBlur stdDeviation="110" result="effect1_foregroundBlur_502_63"/>
</filter>
<filter id="filter2_f_502_63" x="190.16" y="554.209" width="997.834" height="1146.4" filterUnits="userSpaceOnUse" color-interpolation-filters="sRGB">
<feFlood flood-opacity="0" result="BackgroundImageFix"/>
<feBlend mode="normal" in="SourceGraphic" in2="BackgroundImageFix" result="shape"/>
<feGaussianBlur stdDeviation="110" result="effect1_foregroundBlur_502_63"/>
</filter>
<linearGradient id="paint0_linear_502_63" x1="1049.86" y1="-1009.1" x2="1049.86" y2="711.983" gradientUnits="userSpaceOnUse">
<stop stop-color="#E020FF"/>
<stop offset="1" stop-color="#0C7CFF"/>
</linearGradient>
<linearGradient id="paint1_linear_502_63" x1="-55.4612" y1="-831.455" x2="302.001" y2="418.434" gradientUnits="userSpaceOnUse">
<stop offset="0.22307" stop-color="#0C7CFF"/>
<stop offset="1" stop-color="#E020FF"/>
</linearGradient>
<linearGradient id="paint2_linear_502_63" x1="780.5" y1="1389" x2="583.95" y2="764.628" gradientUnits="userSpaceOnUse">
<stop stop-color="#FF7020"/>
<stop offset="1" stop-color="#0C7CFF"/>
</linearGradient>
<clipPath id="clip0_502_63">
<rect width="1263" height="939" fill="white"/>
</clipPath>
</defs>
</svg>
