<svg width="896" height="300" viewBox="0 0 896 300" fill="none" xmlns="http://www.w3.org/2000/svg">
<path fill-rule="evenodd" clip-rule="evenodd" d="M89.1306 23.3696C89.2265 17.3608 86.982 11.3216 82.397 6.73654C73.4149 -2.24551 58.8521 -2.24551 49.8701 6.73654C40.888 15.7186 40.888 30.2814 49.8701 39.2635C54.4551 43.8485 60.4943 46.093 66.5031 45.997L126.575 106.069C126.479 112.078 128.724 118.117 133.309 122.702C142.291 131.684 156.854 131.684 165.836 122.702C170.421 118.117 172.665 112.078 172.569 106.069L197.993 80.6453C204.002 80.7413 210.041 78.4967 214.626 73.9117C223.608 64.9296 223.608 50.3668 214.626 41.3848C205.644 32.4027 191.081 32.4027 182.099 41.3848C177.514 45.9698 175.269 52.0091 175.365 58.0179L149.572 83.8112L89.1306 23.3696ZM6.73654 216.747C11.3216 212.162 17.3608 209.918 23.3696 210.014L83.8112 149.572L58.0179 123.779C52.0091 123.875 45.9698 121.63 41.3848 117.045C32.4027 108.063 32.4027 93.5003 41.3848 84.5183C50.3668 75.5362 64.9296 75.5362 73.9117 84.5183C78.4967 89.1033 80.7413 95.1426 80.6453 101.151L106.069 126.575C112.078 126.479 118.117 128.724 122.702 133.309C131.684 142.291 131.684 156.854 122.702 165.836C118.117 170.421 112.078 172.665 106.069 172.569L45.997 232.641C46.093 238.65 43.8485 244.689 39.2635 249.274C30.2814 258.256 15.7186 258.256 6.73654 249.274C-2.24551 240.292 -2.24551 225.729 6.73654 216.747ZM210.014 275.775C209.918 281.783 212.162 287.823 216.747 292.408C225.729 301.39 240.292 301.39 249.274 292.408C258.256 283.426 258.256 268.863 249.274 259.881C244.689 255.296 238.65 253.051 232.641 253.147L172.569 193.075C172.665 187.066 170.421 181.027 165.836 176.442C156.854 167.46 142.291 167.46 133.309 176.442C128.724 181.027 126.479 187.066 126.575 193.075L101.151 218.499C95.1426 218.403 89.1033 220.647 84.5183 225.233C75.5362 234.215 75.5362 248.777 84.5183 257.759C93.5003 266.742 108.063 266.742 117.045 257.759C121.63 253.174 123.875 247.135 123.779 241.126L149.572 215.333L210.014 275.775ZM292.408 82.397C287.823 86.982 281.783 89.2265 275.775 89.1306L215.333 149.572L241.126 175.365C247.135 175.269 253.174 177.514 257.759 182.099C266.742 191.081 266.742 205.644 257.759 214.626C248.777 223.608 234.215 223.608 225.233 214.626C220.647 210.041 218.403 204.002 218.499 197.993L193.075 172.569C187.066 172.665 181.027 170.421 176.442 165.836C167.46 156.854 167.46 142.291 176.442 133.309C181.027 128.724 187.066 126.479 193.075 126.575L253.147 66.5031C253.051 60.4943 255.296 54.4551 259.881 49.8701C268.863 40.888 283.426 40.888 292.408 49.8701C301.39 58.8521 301.39 73.4149 292.408 82.397ZM484.449 108.687C477.124 100.549 467.766 96.1545 456.372 95.5034H366.529C361.971 95.6662 358.147 97.3752 355.054 100.63C352.124 103.886 350.66 107.792 350.66 112.349C351.473 122.115 356.763 127.404 366.529 128.218H448.072C454.257 128.544 459.384 130.904 463.453 135.298C467.522 139.693 470.451 144.738 472.242 150.435C474.195 155.969 475.171 161.666 475.171 167.525C475.171 173.384 474.195 179.162 472.242 184.859C470.451 190.393 467.522 195.357 463.453 199.751C459.384 204.146 454.257 206.506 448.072 206.832H390.454C385.897 206.832 383.619 204.634 383.619 200.24V163.13C383.456 158.736 381.828 155.074 378.736 152.144C375.643 149.052 371.9 147.424 367.505 147.261C362.948 147.261 359.042 148.807 355.786 151.9C352.531 154.83 350.822 158.573 350.66 163.13V223.677C350.822 228.072 352.369 231.815 355.298 234.908C358.391 237.837 362.134 239.384 366.529 239.546H456.372C467.766 238.895 477.124 234.582 484.449 226.607C491.936 218.469 497.225 209.273 500.318 199.019C503.573 188.765 505.201 178.267 505.201 167.525C505.201 156.783 503.573 146.285 500.318 136.031C497.063 125.777 491.773 116.662 484.449 108.687ZM591.382 190.23C588.29 193.322 586.744 197.147 586.744 201.705C586.744 206.262 588.371 210.087 591.626 213.179C594.719 216.434 598.544 218.062 603.101 218.062H652.173L656.812 230.757C658.439 234.175 660.474 237.024 662.915 239.302C665.52 241.418 669.507 242.476 674.878 242.476C679.598 242.476 683.423 240.848 686.353 237.593C689.445 234.338 690.829 230.432 690.503 225.875C690.341 223.759 689.852 221.805 689.038 220.015L662.183 150.679C654.696 132.125 647.209 117.395 639.722 106.49C632.398 95.422 621.737 89.8068 607.74 89.644C593.579 89.8068 582.837 95.422 575.513 106.49C568.026 117.72 560.539 132.45 553.052 150.679L526.197 220.015C525.383 221.805 524.895 223.759 524.732 225.875C524.406 230.432 525.708 234.338 528.638 237.593C531.73 240.848 535.637 242.476 540.357 242.476C545.402 242.476 549.146 241.418 551.587 239.302C554.191 237.024 556.307 234.175 557.935 230.757L581.128 167.281C583.732 160.608 586.255 154.341 588.697 148.482C591.301 142.46 594.149 137.007 597.242 132.125C600.334 127.242 603.833 124.638 607.74 124.312C611.483 124.638 614.82 127.242 617.749 132.125C621.005 137.007 623.853 142.46 626.294 148.482C628.898 154.341 631.503 160.608 634.107 167.281L640.454 185.347H603.101C598.544 185.347 594.637 186.975 591.382 190.23ZM868.238 103.316C861.727 98.2703 854.322 95.6662 846.021 95.5034H841.382H765.454H760.816C749.423 95.9917 739.901 100.305 732.251 108.443C724.764 116.418 719.393 125.614 716.138 136.031C712.883 146.285 711.255 156.783 711.255 167.525C711.255 178.267 712.801 188.847 715.894 199.263C719.149 209.68 724.602 218.876 732.251 226.851C739.901 234.826 749.423 239.058 760.816 239.546H846.021C857.414 238.895 866.854 234.582 874.341 226.607C881.991 218.632 887.443 209.517 890.699 199.263C894.117 188.847 895.826 178.267 895.826 167.525C895.826 159.387 894.849 151.412 892.896 143.599C890.943 135.787 887.932 128.381 883.863 121.382C879.956 114.384 874.748 108.361 868.238 103.316ZM853.101 199.996C849.032 204.227 843.905 206.506 837.72 206.832H768.384C762.199 206.506 756.991 204.227 752.759 199.996C748.69 195.601 745.76 190.555 743.97 184.859C742.18 179.162 741.285 173.384 741.285 167.525C741.285 161.666 742.18 155.969 743.97 150.435C745.923 144.738 748.934 139.693 753.003 135.298C757.072 130.904 762.199 128.544 768.384 128.218H837.72C843.905 128.544 849.032 130.904 853.101 135.298C857.17 139.693 860.1 144.738 861.89 150.435C863.843 155.969 864.82 161.666 864.82 167.525C864.82 173.384 863.925 179.162 862.134 184.859C860.344 190.555 857.333 195.601 853.101 199.996Z" fill="#355DFF"/>
</svg>
